<svg xmlns="http://www.w3.org/2000/svg" width="525.248" height="154.336" viewBox="0 0 525.248 154.336">
	<g id="Alprom_Logo" data-name="Alprom Logo" transform="translate(-679.672 -167.088)">
		<path id="Path_3" data-name="Path 3"
			d="M38.272-151.424H78.208v128.96H85.7V0H47.424V-7.9Q40.352,2.5,26.832,2.5q-12.064,0-18.408-7.9T2.08-27.456v-49.5q0-14.144,6.344-22.048t18.408-7.9q13.1,0,20.592,10.4V-128.96H38.272Zm1.872,66.352q-7.28,0-7.28,9.568v46.592q0,9.568,7.28,9.568,6.656,0,7.28-8.112v-49.3Q46.8-85.072,40.144-85.072Zm49.712-66.352h38.272v128.96h7.488V0H89.856V-22.464h7.488v-106.5H89.856Zm121.472,85.7v16.016h-40.56v22.464q0,7.9,6.656,7.9t6.656-7.9v-12.48h27.248v1.04q0,21.84-9.256,31.512T177.424,2.5q-37.648,0-37.648-41.184v-27.04q0-22.048,10.5-31.616t26.312-9.568Q211.328-106.912,211.328-65.728Zm-27.248,1.04v-12.48q0-7.9-6.656-7.9t-6.656,7.9v12.48Z"
			transform="translate(891 170) rotate(180)" fill="#fff" />
		<path id="Path_2" data-name="Path 2"
			d="M40.352-53.248v30.784H50.96V0H2.08V-22.464H9.568V-81.952H2.08v-22.464H38.272v14.56q6.656-17.056,25.376-17.056v33.28Q53.04-75.712,46.7-70.2T40.352-53.248Z"
			transform="translate(899 274)" fill="#fff" />
		<path id="Path_1" data-name="Path 1"
			d="M109.408-128.96v-22.464h40.781v22.464h-6.448L122.3,0H88.4L77.376-75.3,65.312,0H28.343L8.528-128.96H2.08v-22.464H48.051v22.464H41.6L51.792-59.7,63.024-128.96H58.656v-22.464h40.56v22.464H94.848L105-59.667l10.852-69.293Zm46.384,90.272v-27.04q0-22.048,10.608-31.616t26.832-9.568q16.224,0,27.04,9.568t10.816,31.616v27.04q0,22.048-10.816,31.616T193.232,2.5q-16.224,0-26.832-9.568T155.792-38.688Zm30.992-38.48v49.92q0,7.9,6.656,7.9t6.656-7.9v-49.92q0-7.9-6.656-7.9T186.784-77.168Z"
			transform="translate(1207 170) rotate(180)" fill="#fff" />
	</g>
</svg>